<?xml version="1.0" standalone="no"?>
<!DOCTYPE svg PUBLIC "-//W3C//DTD SVG 20010904//EN"
 "http://www.w3.org/TR/2001/REC-SVG-20010904/DTD/svg10.dtd">
<svg version="1.0" xmlns="http://www.w3.org/2000/svg"
 width="16.000000pt" height="16.000000pt" viewBox="0 0 16.000000 16.000000"
 preserveAspectRatio="xMidYMid meet">
<metadata>
Created by potrace 1.11, written by Peter Selinger 2001-2013
</metadata>
<g transform="translate(0.000000,16.000000) scale(0.001633,-0.001633)"
fill="#000000" stroke="none">
<path d="M4500 9789 c-833 -72 -1599 -335 -2288 -785 -295 -194 -506 -366
-778 -638 -272 -272 -444 -483 -638 -778 -389 -596 -638 -1247 -745 -1951 -69
-450 -69 -1024 0 -1474 76 -500 218 -957 438 -1408 179 -367 379 -678 645
-1000 126 -152 466 -493 616 -617 805 -664 1726 -1040 2765 -1128 155 -13 615
-13 770 0 1040 88 1964 465 2765 1129 148 122 489 463 611 611 664 801 1041
1725 1129 2765 13 155 13 615 0 770 -88 1038 -463 1960 -1124 2760 -127 154
-467 494 -621 621 -801 661 -1722 1036 -2760 1124 -139 11 -646 11 -785 -1z
m760 -360 c1572 -118 2991 -1075 3705 -2499 208 -415 354 -871 424 -1326 69
-444 69 -964 0 -1408 -223 -1442 -1146 -2703 -2459 -3361 -637 -319 -1304
-476 -2030 -476 -724 0 -1394 157 -2030 476 -1133 568 -1984 1589 -2335 2800
-122 423 -175 805 -175 1265 0 370 30 656 106 993 296 1328 1182 2460 2404
3072 738 370 1549 527 2390 464z"/>
<path d="M4753 7089 c-225 -164 -646 -380 -946 -485 -245 -85 -607 -154 -810
-154 -45 0 -113 -3 -150 -7 l-68 -6 4 -1111 3 -1111 26 -105 c48 -196 130
-387 246 -574 236 -382 663 -790 1059 -1014 l72 -41 -7 32 c-14 64 -7 269 12
331 88 288 357 489 651 487 39 0 79 -2 90 -5 11 -2 38 -7 60 -10 79 -15 194
-68 269 -126 50 -38 146 -143 146 -159 0 -5 4 -11 8 -13 16 -6 73 -137 90
-210 19 -75 22 -220 7 -287 l-7 -34 58 33 c100 56 274 175 389 267 130 103
382 352 479 473 226 283 382 589 448 878 22 96 22 107 25 1200 4 1055 3 1102
-14 1102 -117 2 -392 22 -478 35 -243 36 -510 111 -734 207 -255 109 -540 263
-722 391 -61 42 -114 77 -117 77 -4 -1 -44 -28 -89 -61z m963 -1740 c65 -44
125 -87 133 -94 11 -11 -67 -133 -480 -750 -303 -452 -507 -747 -527 -763 -21
-16 -50 -27 -80 -29 -86 -8 -100 6 -463 436 -275 327 -329 395 -318 406 8 7
66 56 128 109 91 76 117 94 127 84 6 -7 120 -143 253 -301 l243 -288 426 636
c234 349 429 635 432 635 4 0 60 -36 126 -81z"/>
</g>
</svg>
